HIERARCHY
ROOT Hips
{
	OFFSET 0.000000 100.481300 0.000000
	CHANNELS 6 Xposition Yposition Zposition Xrotation Yrotation Zrotation 
	JOINT Spine
	{
		OFFSET -0.279200 12.230698 -2.892100
		CHANNELS 3 Xrotation Yrotation Zrotation
		JOINT Spine1
		{
			OFFSET -0.232667 10.192268 -1.242267
			CHANNELS 3 Xrotation Yrotation Zrotation
			JOINT Spine1_split
			{
				OFFSET -0.232667 10.192268 -1.242267
				CHANNELS 3 Xrotation Yrotation Zrotation
				JOINT Spine2
				{
					OFFSET -0.232667 10.192268 -1.242267
					CHANNELS 3 Xrotation Yrotation Zrotation
					JOINT Neck
					{
						OFFSET -0.418800 17.814194 8.416900
						CHANNELS 3 Xrotation Yrotation Zrotation
						JOINT Head
						{
							OFFSET 0.000000 7.031097 3.806800
							CHANNELS 3 Xrotation Yrotation Zrotation
							JOINT HeadTop_End
							{
								OFFSET 0.000000 24.646606 12.978600
								CHANNELS 3 Xrotation Yrotation Zrotation
								End Site
								{
									OFFSET 0.000000 0.000000 0.000000
								}
							}
						}
					}
					JOINT LeftShoulder
					{
						OFFSET 8.476499 7.247704 -3.868750
						CHANNELS 3 Xrotation Yrotation Zrotation
						JOINT LeftShoulder_split
						{
							OFFSET 8.476499 7.247704 -3.868750
							CHANNELS 3 Xrotation Yrotation Zrotation
							JOINT LeftArm
							{
								OFFSET 9.308998 -2.777710 0.208600
								CHANNELS 3 Xrotation Yrotation Zrotation
								JOINT LeftForeArm
								{
									OFFSET 29.972298 0.000000 0.000000
									CHANNELS 3 Xrotation Yrotation Zrotation
									JOINT LeftHand
									{
										OFFSET 26.026505 0.000000 0.000000
										CHANNELS 3 Xrotation Yrotation Zrotation
										JOINT LeftHandThumb1
										{
											OFFSET 12.240501 -7.147949 9.207150
											CHANNELS 3 Xrotation Yrotation Zrotation
											JOINT LeftHandThumb2
											{
												OFFSET 4.138618 -2.389435 2.389433
												CHANNELS 3 Xrotation Yrotation Zrotation
												JOINT LeftHandThumb3
												{
													OFFSET 2.726913 -1.574387 1.574386
													CHANNELS 3 Xrotation Yrotation Zrotation
													JOINT LeftHandThumb4
													{
														OFFSET 3.941010 -2.275345 2.275342
														CHANNELS 3 Xrotation Yrotation Zrotation
														End Site
														{
															OFFSET 0.000000 0.000000 0.000000
														}
													}
												}
											}
										}
										JOINT LeftHandIndex1
										{
											OFFSET 24.424698 -1.985611 5.953459
											CHANNELS 3 Xrotation Yrotation Zrotation
											JOINT LeftHandIndex2
											{
												OFFSET 6.426697 0.000000 0.000000
												CHANNELS 3 Xrotation Yrotation Zrotation
												JOINT LeftHandIndex3
												{
													OFFSET 5.337898 0.000000 0.000000
													CHANNELS 3 Xrotation Yrotation Zrotation
													JOINT LeftHandIndex4
													{
														OFFSET 4.409401 0.000000 0.000000
														CHANNELS 3 Xrotation Yrotation Zrotation
														End Site
														{
															OFFSET 0.000000 0.000000 0.000000
														}
													}
												}
											}
										}
										JOINT LeftHandMiddle1
										{
											OFFSET 23.810104 0.000000 0.000000
											CHANNELS 3 Xrotation Yrotation Zrotation
											JOINT LeftHandMiddle2
											{
												OFFSET 7.176498 0.000000 0.000000
												CHANNELS 3 Xrotation Yrotation Zrotation
												JOINT LeftHandMiddle3
												{
													OFFSET 6.774902 0.000000 0.000000
													CHANNELS 3 Xrotation Yrotation Zrotation
													JOINT LeftHandMiddle4
													{
														OFFSET 5.403328 0.000000 0.000000
														CHANNELS 3 Xrotation Yrotation Zrotation
														End Site
														{
															OFFSET 0.000000 0.000000 0.000000
														}
													}
												}
											}
										}
										JOINT LeftHandRing1
										{
											OFFSET 22.908401 -0.839279 -6.020567
											CHANNELS 3 Xrotation Yrotation Zrotation
											JOINT LeftHandRing2
											{
												OFFSET 6.337502 0.000000 0.000000
												CHANNELS 3 Xrotation Yrotation Zrotation
												JOINT LeftHandRing3
												{
													OFFSET 5.779297 0.000000 0.000000
													CHANNELS 3 Xrotation Yrotation Zrotation
													JOINT LeftHandRing4
													{
														OFFSET 4.965698 0.000000 0.000000
														CHANNELS 3 Xrotation Yrotation Zrotation
														End Site
														{
															OFFSET 0.000000 0.000000 0.000000
														}
													}
												}
											}
										}
										JOINT LeftHandPinky1
										{
											OFFSET 20.037003 -1.530319 -10.950146
											CHANNELS 3 Xrotation Yrotation Zrotation
											JOINT LeftHandPinky2
											{
												OFFSET 5.254700 0.000000 0.000000
												CHANNELS 3 Xrotation Yrotation Zrotation
												JOINT LeftHandPinky3
												{
													OFFSET 4.810204 0.000000 0.000000
													CHANNELS 3 Xrotation Yrotation Zrotation
													JOINT LeftHandPinky4
													{
														OFFSET 3.647202 0.000000 0.000000
														CHANNELS 3 Xrotation Yrotation Zrotation
														End Site
														{
															OFFSET 0.000000 0.000000 0.000000
														}
													}
												}
											}
										}
									}
								}
							}
						}
					}
					JOINT RightShoulder
					{
						OFFSET -7.570500 7.247704 -3.868750
						CHANNELS 3 Xrotation Yrotation Zrotation
						JOINT RightShoulder_split
						{
							OFFSET -7.570500 7.247704 -3.868750
							CHANNELS 3 Xrotation Yrotation Zrotation
							JOINT RightArm
							{
								OFFSET -9.308998 -2.777710 0.208500
								CHANNELS 3 Xrotation Yrotation Zrotation
								JOINT RightForeArm
								{
									OFFSET -29.972300 0.000000 0.000000
									CHANNELS 3 Xrotation Yrotation Zrotation
									JOINT RightHand
									{
										OFFSET -26.026505 0.000000 0.000000
										CHANNELS 3 Xrotation Yrotation Zrotation
										JOINT RightHandThumb1
										{
											OFFSET -12.240601 -7.148026 9.207092
											CHANNELS 3 Xrotation Yrotation Zrotation
											JOINT RightHandThumb2
											{
												OFFSET -4.138618 -2.389435 2.389433
												CHANNELS 3 Xrotation Yrotation Zrotation
												JOINT RightHandThumb3
												{
													OFFSET -2.726974 -1.574417 1.574421
													CHANNELS 3 Xrotation Yrotation Zrotation
													JOINT RightHandThumb4
													{
														OFFSET -3.941010 -2.275345 2.275343
														CHANNELS 3 Xrotation Yrotation Zrotation
														End Site
														{
															OFFSET 0.000000 0.000000 0.000000
														}
													}
												}
											}
										}
										JOINT RightHandIndex1
										{
											OFFSET -24.424698 -1.985657 5.953444
											CHANNELS 3 Xrotation Yrotation Zrotation
											JOINT RightHandIndex2
											{
												OFFSET -6.426697 0.000000 0.000000
												CHANNELS 3 Xrotation Yrotation Zrotation
												JOINT RightHandIndex3
												{
													OFFSET -5.337898 0.000000 0.000000
													CHANNELS 3 Xrotation Yrotation Zrotation
													JOINT RightHandIndex4
													{
														OFFSET -4.409401 0.000000 0.000000
														CHANNELS 3 Xrotation Yrotation Zrotation
														End Site
														{
															OFFSET 0.000000 0.000000 0.000000
														}
													}
												}
											}
										}
										JOINT RightHandMiddle1
										{
											OFFSET -23.810097 0.000000 0.000000
											CHANNELS 3 Xrotation Yrotation Zrotation
											JOINT RightHandMiddle2
											{
												OFFSET -7.176498 0.000000 0.000000
												CHANNELS 3 Xrotation Yrotation Zrotation
												JOINT RightHandMiddle3
												{
													OFFSET -6.774902 0.000000 0.000000
													CHANNELS 3 Xrotation Yrotation Zrotation
													JOINT RightHandMiddle4
													{
														OFFSET -5.403328 0.000000 0.000000
														CHANNELS 3 Xrotation Yrotation Zrotation
														End Site
														{
															OFFSET 0.000000 0.000000 0.000000
														}
													}
												}
											}
										}
										JOINT RightHandRing1
										{
											OFFSET -22.908302 -0.839325 -6.020576
											CHANNELS 3 Xrotation Yrotation Zrotation
											JOINT RightHandRing2
											{
												OFFSET -6.337502 0.000000 0.000000
												CHANNELS 3 Xrotation Yrotation Zrotation
												JOINT RightHandRing3
												{
													OFFSET -5.779297 0.000000 0.000000
													CHANNELS 3 Xrotation Yrotation Zrotation
													JOINT RightHandRing4
													{
														OFFSET -4.965698 0.000000 0.000000
														CHANNELS 3 Xrotation Yrotation Zrotation
														End Site
														{
															OFFSET 0.000000 0.000000 0.000000
														}
													}
												}
											}
										}
										JOINT RightHandPinky1
										{
											OFFSET -20.037003 -1.530334 -10.950259
											CHANNELS 3 Xrotation Yrotation Zrotation
											JOINT RightHandPinky2
											{
												OFFSET -5.254700 0.000000 0.000000
												CHANNELS 3 Xrotation Yrotation Zrotation
												JOINT RightHandPinky3
												{
													OFFSET -4.810204 0.000000 0.000000
													CHANNELS 3 Xrotation Yrotation Zrotation
													JOINT RightHandPinky4
													{
														OFFSET -3.647202 0.000000 0.000000
														CHANNELS 3 Xrotation Yrotation Zrotation
														End Site
														{
															OFFSET 0.000000 0.000000 0.000000
														}
													}
												}
											}
										}
									}
								}
							}
						}
					}
				}
			}
		}
	}
	JOINT LeftUpLeg
	{
		OFFSET 15.427100 -6.655098 0.678600
		CHANNELS 3 Xrotation Yrotation Zrotation
		JOINT LeftLeg
		{
			OFFSET 4.081073 -39.591068 13.024000
			CHANNELS 3 Xrotation Yrotation Zrotation
			JOINT LeftFoot
			{
				OFFSET -4.081074 -37.707932 -15.979700
				CHANNELS 3 Xrotation Yrotation Zrotation
				JOINT LeftToeBase
				{
					OFFSET 5.346399 -15.068900 20.645000
					CHANNELS 3 Xrotation Yrotation Zrotation
					JOINT LeftToe_End
					{
						OFFSET 2.754700 0.931300 11.300900
						CHANNELS 3 Xrotation Yrotation Zrotation
						End Site
						{
							OFFSET 0.000000 0.000000 0.000000
						}
					}
				}
			}
		}
	}
	JOINT RightUpLeg
	{
		OFFSET -15.569500 -6.655098 0.678600
		CHANNELS 3 Xrotation Yrotation Zrotation
		JOINT RightLeg
		{
			OFFSET -4.081825 -39.591045 13.023800
			CHANNELS 3 Xrotation Yrotation Zrotation
			JOINT RightFoot
			{
				OFFSET 4.081824 -37.707954 -15.979600
				CHANNELS 3 Xrotation Yrotation Zrotation
				JOINT RightToeBase
				{
					OFFSET -5.346400 -15.068900 20.645000
					CHANNELS 3 Xrotation Yrotation Zrotation
					JOINT RightToe_End
					{
						OFFSET -2.754700 0.931300 11.300900
						CHANNELS 3 Xrotation Yrotation Zrotation
						End Site
						{
							OFFSET 0.000000 0.000000 0.000000
						}
					}
				}
			}
		}
	}
}
MOTION
Frames: 5
Frame Time: 0.016667
-15.147412 72.666039 -4.348509 -6.203401 -41.874742 2.106129 9.623403 6.566724 -1.457805 2.766068 -0.356993 -2.318342 0.000000 0.000000 0.000000 2.765119 -0.254317 -2.356226 2.319639 13.599724 3.258861 11.523873 19.676544 -2.051256 0.000001 0.000000 0.000000 2.217708 0.696462 -13.443604 0.000000 0.000000 0.000000 -68.029729 -0.403271 -40.075708 -0.000008 -108.716777 0.000007 0.135986 -4.421008 -12.826696 -6.141222 -11.690799 -6.761684 9.914125 42.595519 3.409858 -0.422809 8.108095 27.509115 -0.000001 -0.000002 -0.000002 0.255311 3.378216 -45.814334 5.654090 5.847752 -88.067455 2.162143 4.544813 -50.866386 0.000002 -0.000000 -0.000003 -0.461472 3.841593 -39.722686 6.450752 5.820350 -95.892857 2.182890 4.561567 -51.127743 -0.000001 -0.000001 0.000003 0.469726 4.966826 -39.799444 8.181046 5.368613 -113.503018 3.200495 5.218120 -63.022968 0.000001 0.000000 0.000001 -3.762435 9.063690 -45.253811 5.342538 5.829001 -85.005297 8.716833 5.103333 -119.369167 -0.000001 0.000000 -0.000000 2.599451 11.718739 -12.158732 0.000000 0.000000 0.000000 -64.262893 18.736216 84.603122 0.002878 87.058172 -0.002815 -17.320453 37.211916 21.718846 -7.341107 13.749656 7.412342 9.855788 -44.489100 -3.903282 -0.115791 -14.513076 -28.973867 -0.000000 -0.000000 0.000001 -0.124374 -2.384788 45.108861 4.500585 -4.654537 88.071157 1.723226 -3.618375 50.920122 0.000000 0.000000 -0.000006 -0.761618 -2.932903 39.031055 5.133881 -4.632766 95.881629 1.739748 -3.631701 51.181367 -0.000001 -0.000000 0.000004 0.154760 -4.068820 39.122668 6.509732 -4.273600 113.462863 2.549586 -4.153926 63.067317 0.000000 0.000000 -0.000000 -4.198876 -8.025514 44.637776 4.252925 -4.639631 85.014839 6.935957 -4.062622 119.322285 0.000000 0.000000 0.000001 -25.821168 5.458489 26.360885 47.887269 -10.796662 8.930765 -16.896882 -9.479227 -30.678744 -7.665777 -0.000022 -0.000003 -0.000000 -0.000000 -0.000000 -27.026408 -4.965248 -42.568300 56.404850 -3.167137 -5.542269 -15.157754 -8.552352 29.204055 0.010762 -0.000001 0.011358 0.000000 0.000001 -0.000001 
-15.832474 73.128815 -4.580824 -6.540748 -42.049325 2.023040 9.611983 6.425759 -1.371778 2.786418 -0.645102 -2.360987 0.000000 0.000000 0.000000 2.784641 -0.532868 -2.409948 2.357357 13.650866 3.291965 11.963595 19.954410 -2.414290 0.000002 -0.000000 -0.000000 2.119627 1.326088 -13.029242 0.000000 0.000000 0.000000 -67.198809 -0.218712 -41.239173 0.000185 -108.751283 0.000188 0.302967 -4.918423 -12.653550 -6.141221 -11.690799 -6.761685 9.914119 42.595515 3.409854 -0.422814 8.108093 27.509116 -0.000001 0.000001 -0.000000 0.255310 3.378216 -45.814334 5.654090 5.847753 -88.067455 2.162145 4.544811 -50.866386 -0.000001 0.000000 -0.000005 -0.461472 3.841592 -39.722683 6.450750 5.820350 -95.892857 2.182889 4.561567 -51.127740 -0.000000 0.000000 0.000002 0.469725 4.966825 -39.799444 8.181046 5.368618 -113.503018 3.200495 5.218118 -63.022975 0.000000 -0.000000 0.000001 -3.762437 9.063690 -45.253814 5.342538 5.829003 -85.005297 8.716831 5.103333 -119.369167 -0.000000 -0.000001 -0.000002 2.565274 11.280106 -12.138842 0.000000 0.000000 0.000000 -64.922082 18.397989 84.997920 -0.005137 87.809076 0.005163 -17.630002 37.319723 21.737752 -7.341110 13.749653 7.412341 9.855784 -44.489100 -3.903276 -0.115788 -14.513078 -28.973871 0.000001 -0.000000 -0.000000 -0.124374 -2.384787 45.108861 4.500585 -4.654537 88.071164 1.723225 -3.618375 50.920126 0.000000 0.000000 -0.000004 -0.761617 -2.932903 39.031058 5.133881 -4.632766 95.881629 1.739746 -3.631700 51.181367 -0.000001 0.000000 -0.000002 0.154761 -4.068819 39.122668 6.509732 -4.273600 113.462863 2.549586 -4.153926 63.067317 -0.000000 -0.000000 -0.000002 -4.198876 -8.025512 44.637783 4.252925 -4.639629 85.014839 6.935958 -4.062623 119.322285 -0.000002 -0.000000 0.000001 -25.789310 5.096178 26.317323 47.923141 -11.385971 9.066573 -13.724720 -9.019021 -30.666228 -9.688093 -0.000264 0.007861 -0.000000 -0.000001 -0.000000 -26.644655 -5.575269 -42.422182 56.156924 -3.198116 -5.308717 -15.705294 -8.234875 28.556790 0.008011 -0.000041 0.009220 -0.000000 0.000000 -0.000000 
-16.495237 73.652611 -4.761061 -6.713222 -42.216371 2.017032 9.588641 6.307582 -1.304441 2.771246 -0.888553 -2.411324 0.000000 0.000000 0.000000 2.769533 -0.770341 -2.469699 2.323234 13.688408 3.351656 12.263290 20.206068 -2.684247 0.000001 0.000000 -0.000001 2.040251 1.891025 -12.727013 0.000000 0.000000 0.000000 -66.041905 -0.227477 -42.512716 0.000274 -108.614672 0.000280 0.616240 -5.150691 -12.859880 -6.141222 -11.690799 -6.761689 9.914120 42.595512 3.409861 -0.422811 8.108092 27.509115 -0.000000 0.000000 0.000002 0.255310 3.378217 -45.814337 5.654086 5.847752 -88.067455 2.162141 4.544813 -50.866382 0.000001 0.000000 -0.000002 -0.461473 3.841594 -39.722686 6.450750 5.820350 -95.892857 2.182888 4.561568 -51.127743 0.000001 -0.000000 0.000003 0.469726 4.966825 -39.799444 8.181046 5.368617 -113.503018 3.200494 5.218119 -63.022968 0.000000 -0.000001 0.000001 -3.762437 9.063690 -45.253814 5.342538 5.829001 -85.005297 8.716831 5.103330 -119.369167 0.000000 -0.000001 -0.000001 2.522554 10.738729 -12.141174 0.000000 0.000000 0.000000 -65.351236 18.105141 85.469996 -0.011093 88.672535 0.011205 -17.925680 37.372090 21.709901 -7.341109 13.749655 7.412336 9.855784 -44.489096 -3.903278 -0.115789 -14.513076 -28.973871 0.000002 -0.000001 0.000001 -0.124374 -2.384788 45.108861 4.500585 -4.654537 88.071164 1.723226 -3.618375 50.920126 -0.000000 0.000001 -0.000004 -0.761617 -2.932903 39.031055 5.133884 -4.632768 95.881629 1.739746 -3.631700 51.181370 -0.000001 -0.000002 0.000002 0.154761 -4.068820 39.122668 6.509732 -4.273599 113.462863 2.549585 -4.153926 63.067317 -0.000000 0.000000 -0.000002 -4.198876 -8.025512 44.637779 4.252924 -4.639630 85.014839 6.935958 -4.062623 119.322285 0.000000 -0.000000 -0.000001 -25.998910 4.641367 26.190062 48.203360 -11.906498 9.014234 -10.400379 -8.419005 -30.177132 -11.950427 0.022724 -0.322739 -0.000000 -0.000000 -0.000000 -26.245627 -6.184031 -42.151051 55.752003 -3.224314 -5.116376 -16.159265 -8.048659 27.940031 0.001981 0.000017 0.004843 0.000000 0.000001 -0.000000 
-17.113802 74.205833 -4.874231 -6.735584 -42.391532 2.070262 9.552363 6.220859 -1.246500 2.720343 -1.070412 -2.460027 0.000000 0.000000 0.000000 2.719149 -0.949812 -2.525622 2.229914 13.710771 3.433354 12.372784 20.430351 -2.883340 0.000001 -0.000000 0.000001 1.997483 2.324996 -12.601864 0.000000 0.000000 0.000000 -64.622517 -0.436634 -43.747751 0.000136 -108.319410 0.000147 1.063105 -5.154259 -13.436484 -6.141222 -11.690800 -6.761687 9.914126 42.595525 3.409853 -0.422809 8.108097 27.509120 0.000001 0.000001 0.000000 0.255308 3.378215 -45.814327 5.654089 5.847753 -88.067455 2.162141 4.544813 -50.866382 0.000000 -0.000002 0.000001 -0.461473 3.841591 -39.722679 6.450752 5.820351 -95.892857 2.182889 4.561568 -51.127743 -0.000001 0.000002 -0.000001 0.469724 4.966826 -39.799444 8.181047 5.368613 -113.503018 3.200495 5.218120 -63.022968 0.000000 0.000001 -0.000000 -3.762436 9.063687 -45.253811 5.342537 5.829003 -85.005297 8.716831 5.103331 -119.369167 -0.000000 -0.000000 -0.000000 2.474450 10.139575 -12.169915 0.000000 0.000000 0.000000 -65.449318 17.878898 85.928376 0.334040 89.657906 -0.333975 -18.193418 37.393438 21.742341 -7.341109 13.749652 7.412338 9.855785 -44.489100 -3.903279 -0.115793 -14.513076 -28.973871 -0.000003 0.000000 -0.000000 -0.124375 -2.384788 45.108857 4.500584 -4.654537 88.071164 1.723226 -3.618374 50.920133 0.000000 0.000000 -0.000002 -0.761617 -2.932903 39.031055 5.133882 -4.632768 95.881629 1.739746 -3.631700 51.181374 0.000001 0.000001 0.000001 0.154761 -4.068818 39.122668 6.509732 -4.273600 113.462863 2.549586 -4.153926 63.067317 -0.000000 -0.000000 0.000002 -4.198877 -8.025512 44.637779 4.252922 -4.639630 85.014839 6.935959 -4.062623 119.322285 0.000001 -0.000000 -0.000001 -26.382717 4.205604 25.906274 48.931926 -11.725533 9.033023 -7.937479 -8.114096 -28.634769 -12.187329 0.144510 -1.763386 0.000000 0.000001 -0.000000 -25.838163 -6.749855 -41.765432 55.221318 -3.240643 -4.971263 -16.511890 -7.989163 27.374947 -0.003591 -0.000017 0.000699 -0.000000 0.000000 -0.000000 
-17.695404 74.768448 -4.926002 -6.635222 -42.581862 2.160379 9.503874 6.170947 -1.188573 2.640296 -1.180725 -2.495264 0.000000 0.000000 0.000000 2.639781 -1.060863 -2.565576 2.087521 13.713257 3.536874 12.260525 20.617659 -3.062891 -0.000002 -0.000000 -0.000001 1.997595 2.570337 -12.655319 0.000000 0.000000 0.000000 -62.993844 -0.765878 -44.829175 0.000043 -107.900467 0.000047 1.633540 -5.004590 -14.337573 -6.141222 -11.690800 -6.761685 9.914117 42.595512 3.409863 -0.422814 8.108094 27.509120 0.000003 -0.000002 0.000002 0.255312 3.378218 -45.814331 5.654090 5.847754 -88.067448 2.162146 4.544813 -50.866382 0.000000 0.000001 0.000000 -0.461471 3.841593 -39.722683 6.450751 5.820351 -95.892857 2.182886 4.561567 -51.127743 -0.000000 0.000001 0.000002 0.469728 4.966827 -39.799444 8.181045 5.368615 -113.503018 3.200495 5.218120 -63.022968 -0.000000 -0.000001 -0.000000 -3.762433 9.063690 -45.253818 5.342537 5.829000 -85.005297 8.716833 5.103332 -119.369167 0.000000 -0.000001 -0.000001 2.424930 9.529669 -12.215775 0.000000 0.000000 0.000000 -65.171855 17.733949 86.301954 0.052071 90.763788 -0.052034 -18.393112 37.373634 21.845978 -7.341108 13.749653 7.412338 9.855792 -44.489100 -3.903283 -0.115788 -14.513078 -28.973871 0.000004 0.000006 -0.000003 -0.124375 -2.384788 45.108861 4.500585 -4.654537 88.071164 1.723226 -3.618375 50.920126 0.000000 -0.000000 0.000003 -0.761617 -2.932902 39.031055 5.133880 -4.632767 95.881629 1.739747 -3.631700 51.181367 -0.000001 -0.000001 0.000001 0.154760 -4.068819 39.122668 6.509731 -4.273599 113.462863 2.549587 -4.153925 63.067324 -0.000000 0.000000 -0.000003 -4.198877 -8.025512 44.637779 4.252924 -4.639631 85.014839 6.935958 -4.062622 119.322285 0.000001 -0.000001 -0.000001 -26.987925 3.767485 25.522638 49.808314 -11.296261 9.032883 -5.623212 -8.249345 -27.033749 -12.594703 0.327677 -3.118416 -0.000000 0.000002 -0.000000 -25.420875 -7.262442 -41.260275 54.604914 -3.254865 -4.880537 -16.788045 -8.044332 26.871332 -0.007578 0.000009 0.000001 -0.000000 -0.000001 0.000000 
